# xmcd
#
# Track frame offsets:
#	150
#	21014
#	40828
#	58743
#	81467
#	101067
#	117396
#	135163
#	155205
#	174195
#	190189
#	213436
#	230788
#	251017
#	270701
#	290428
#	311802
#
# Disc length: 4396 seconds
#
# Revision: 2
# Processed by: cddbd v1.5.1PL0 Copyright (c) Steve Scherf et al.
# Submitted via: audiograbber 1.83.01
#
DISCID=f9112a11
DTITLE=Mariah Carey - Singles Collection '99 [CD 1)
DYEAR=1999
DGENRE=Pop
TTITLE0=When You Believe
TTITLE1=Sweetheart
TTITLE2=I Still Believe
TTITLE3=Honey
TTITLE4=Always Be My Baby
TTITLE5=Without You
TTITLE6=Dreamlover
TTITLE7=I'll Be There
TTITLE8=Emotions
TTITLE9=Vision Of Love
TTITLE10=Make It Happen
TTITLE11=Love Takes Time
TTITLE12=Can't Let Go
TTITLE13=Hero
TTITLE14=Endless Love
TTITLE15=One Sweet Day
TTITLE16=Honey
EXTD=
EXTT0=
EXTT1=
EXTT2=
EXTT3=
EXTT4=
EXTT5=
EXTT6=
EXTT7=
EXTT8=
EXTT9=
EXTT10=
EXTT11=
EXTT12=
EXTT13=
EXTT14=
EXTT15=
EXTT16=
PLAYORDER=
